<?xml version="1.0" encoding="UTF-8" standalone="no"?>
<svg
   width="85"
   height="85"
   viewBox="0 0 85 85"
   fill="none"
   version="1.1"
   id="svg4"
   sodipodi:docname="case-check.svg"
   inkscape:version="1.1.2 (b8e25be833, 2022-02-05)"
   xmlns:inkscape="http://www.inkscape.org/namespaces/inkscape"
   xmlns:sodipodi="http://sodipodi.sourceforge.net/DTD/sodipodi-0.dtd"
   xmlns="http://www.w3.org/2000/svg"
   xmlns:svg="http://www.w3.org/2000/svg">
  <defs
     id="defs8" />
  <sodipodi:namedview
     id="namedview6"
     pagecolor="#505050"
     bordercolor="#eeeeee"
     borderopacity="1"
     inkscape:pageshadow="0"
     inkscape:pageopacity="0"
     inkscape:pagecheckerboard="0"
     showgrid="false"
     inkscape:zoom="1.2220588"
     inkscape:cx="22.093863"
     inkscape:cy="15.956679"
     inkscape:window-width="1920"
     inkscape:window-height="1018"
     inkscape:window-x="-8"
     inkscape:window-y="-8"
     inkscape:window-maximized="1"
     inkscape:current-layer="svg4" />
  <path
     fill-rule="evenodd"
     clip-rule="evenodd"
     d="M27.3214 3.03571C27.3214 1.36607 25.9614 0 24.2857 0C22.61 0 21.25 1.36607 21.25 3.03571V6.07143H15.1786C6.79696 6.07143 0 12.8714 0 21.25V69.8214C0 78.2 6.79696 85 15.1786 85H69.8214C78.203 85 85 78.2 85 69.8214V21.25C85 12.8714 78.203 6.07143 69.8214 6.07143H63.75V3.03571C63.75 1.36607 62.39 0 60.7143 0C59.0386 0 57.6786 1.36607 57.6786 3.03571V6.07143H27.3214V3.03571ZM15.1786 12.1429H21.25V15.1786C21.25 16.8482 22.61 18.2143 24.2857 18.2143C25.9614 18.2143 27.3214 16.8482 27.3214 15.1786V12.1429H57.6786V15.1786C57.6786 16.8482 59.0386 18.2143 60.7143 18.2143C62.39 18.2143 63.75 16.8482 63.75 15.1786V12.1429H69.8214C74.8516 12.1429 78.9286 16.2107 78.9286 21.25V27.3214H6.07143V21.25C6.07143 16.2107 10.1484 12.1429 15.1786 12.1429ZM6.07143 33.3929H78.9286V69.8214C78.9286 74.8607 74.8516 78.9286 69.8214 78.9286H15.1786C10.1484 78.9286 6.07143 74.8607 6.07143 69.8214V33.3929Z"
     fill="black"
     id="path2" />
  <g
     style="fill:none"
     id="g19"
     transform="translate(29.255718,43.211798)">
    <path
       d="M 26.3738,3.68546 C 27.3296,2.74056 27.1731,1.32315 26.0283,0.513238 24.8835,-0.274173 23.1797,-0.139177 22.2266,0.805716 L 10.4816,12.5493 4.46325,8.22999 C 3.33195,7.42008 1.62821,7.53251 0.653506,8.45491 -0.318498,9.3998 -0.19165,10.8172 0.936955,11.6271 l 8.100035,5.8268 c 0.55081,0.3825 1.26361,0.5849 1.98451,0.5399 0.7236,-0.0675 1.3906,-0.3374 1.8523,-0.8099 z"
       fill="#ffd200"
       id="path10" />
  </g>
</svg>
