<?xml version="1.0" encoding="UTF-8" standalone="no"?>
<svg
   width="49"
   height="49"
   viewBox="0 0 49 49"
   fill="none"
   version="1.1"
   id="svg4"
   sodipodi:docname="clock.svg"
   inkscape:version="1.1.2 (b8e25be833, 2022-02-05)"
   xmlns:inkscape="http://www.inkscape.org/namespaces/inkscape"
   xmlns:sodipodi="http://sodipodi.sourceforge.net/DTD/sodipodi-0.dtd"
   xmlns="http://www.w3.org/2000/svg"
   xmlns:svg="http://www.w3.org/2000/svg">
  <defs
     id="defs8" />
  <sodipodi:namedview
     id="namedview6"
     pagecolor="#505050"
     bordercolor="#eeeeee"
     borderopacity="1"
     inkscape:pageshadow="0"
     inkscape:pageopacity="0"
     inkscape:pagecheckerboard="0"
     showgrid="false"
     inkscape:zoom="5.9959769"
     inkscape:cx="8.0053677"
     inkscape:cy="28.76929"
     inkscape:window-width="1920"
     inkscape:window-height="1018"
     inkscape:window-x="-8"
     inkscape:window-y="-8"
     inkscape:window-maximized="1"
     inkscape:current-layer="svg4" />
  <path
     d="M3.5 24.5C3.5 12.8975 12.9028 3.5 24.5 3.5C36.0972 3.5 45.5 12.8975 45.5 24.5C45.5 36.1025 36.0972 45.5 24.5 45.5C23.534 45.5 22.75 46.2875 22.75 47.25C22.75 48.2125 23.534 49 24.5 49C38.031 49 49 38.0275 49 24.5C49 10.9725 38.031 0 24.5 0C10.969 0 0 10.9725 0 24.5C0 25.4625 0.784 26.25 1.75 26.25C2.716 26.25 3.5 25.4625 3.5 24.5Z"
     fill="#FFD200"
     id="path2" />
  <g
     style="fill:none"
     id="g19"
     transform="translate(12.66573,9.3637646)">
    <path
       d="M 13.37,18.8497 C 13.769,18.5172 14,18.0271 14,17.502 V 1.7502 C 14,0.787591 13.216,0 12.25,0 11.284,0 10.5,0.787591 10.5,1.7502 v 14.9293 l -9.870162,8.2258 c -0.742008,0.6301 -0.843493,1.7328 -0.223986,2.4679 0.617758,0.7351 1.722048,0.8401 2.464058,0.2275 z"
       fill="#ffd200"
       id="path10" />
  </g>
</svg>
