<svg width="85" height="85" viewBox="0 0 85 85" fill="none" xmlns="http://www.w3.org/2000/svg">
<path d="M42.5002 59.3223C41.0835 59.3223 39.6668 59.2161 38.321 58.9682C30.8127 57.8702 23.9772 53.5494 19.6564 47.139C16.646 42.6057 15.0522 37.3286 15.0522 31.8744C15.0522 16.7515 27.3772 4.42651 42.5002 4.42651C57.6231 4.42651 69.9481 16.7515 69.9481 31.8744C69.9481 37.3286 68.3543 42.6057 65.3439 47.139C60.9877 53.5848 54.1522 57.8703 46.5731 59.0036C45.3335 59.2161 43.9168 59.3223 42.5002 59.3223ZM42.5002 9.73901C30.2814 9.73901 20.3647 19.6557 20.3647 31.8744C20.3647 36.3015 21.6397 40.5515 24.0481 44.164C27.5543 49.3349 33.0439 52.8057 39.1356 53.6911C41.4022 54.0807 43.6335 54.0807 45.7231 53.6911C51.921 52.8057 57.4106 49.2994 60.9168 44.1286C63.3252 40.5161 64.6002 36.2661 64.6002 31.839C64.6356 19.6556 54.7189 9.73901 42.5002 9.73901Z" fill="#292D32"/>
<path d="M22.9139 80.0069C22.4181 80.0069 21.9577 79.9361 21.4618 79.8299C19.1597 79.2986 17.3889 77.5278 16.8577 75.2257L15.6181 70.0194C15.5472 69.7007 15.2993 69.4527 14.9452 69.3465L9.10142 67.9653C6.90558 67.434 5.17017 65.8049 4.56808 63.6445C3.966 61.484 4.56808 59.1465 6.16183 57.5528L19.9743 43.7403C20.541 43.1736 21.3202 42.8903 22.0993 42.9611C22.8785 43.032 23.5868 43.4569 24.0473 44.1298C27.5535 49.3007 33.0431 52.807 39.1702 53.6924C41.4368 54.082 43.6681 54.082 45.7577 53.6924C51.9556 52.807 57.4452 49.3007 60.9514 44.1298C61.3764 43.4569 62.1202 43.032 62.8993 42.9611C63.6785 42.8903 64.4577 43.1736 65.0243 43.7403L78.8368 57.5528C80.4306 59.1465 81.0327 61.484 80.4306 63.6445C79.8285 65.8049 78.0577 67.4695 75.8972 67.9653L70.0535 69.3465C69.7347 69.4173 69.4868 69.6652 69.3806 70.0194L68.141 75.2257C67.6097 77.5278 65.8389 79.2986 63.5368 79.8299C61.2347 80.3966 58.8618 79.5819 57.3743 77.7757L42.4993 60.6695L27.6243 77.8111C26.4202 79.2278 24.7202 80.0069 22.9139 80.0069ZM21.5681 49.6903L9.916 61.3424C9.59725 61.6611 9.63267 62.0153 9.7035 62.2278C9.73892 62.4049 9.916 62.759 10.341 62.8298L16.1848 64.2111C18.4868 64.7424 20.2577 66.5132 20.7889 68.8153L22.0285 74.0215C22.1348 74.4819 22.4889 74.6236 22.7014 74.6944C22.9139 74.7299 23.2681 74.7653 23.5868 74.4112L37.1514 58.7924C31.1306 57.6236 25.6056 54.4007 21.5681 49.6903ZM47.8473 58.7569L61.4118 74.3403C61.7306 74.7298 62.1202 74.7298 62.3327 74.659C62.5452 74.6236 62.8639 74.4466 63.0056 73.9862L64.2452 68.7799C64.7764 66.4778 66.5472 64.7069 68.8493 64.1757L74.6931 62.7945C75.1181 62.6882 75.2952 62.3694 75.3306 62.1924C75.4014 62.0153 75.4368 61.6257 75.1181 61.3069L63.466 49.6548C59.3931 54.3652 53.9035 57.5882 47.8473 58.7569Z" fill="#292D32"/>
<path d="M49.1942 45.652C48.2734 45.652 47.1755 45.4041 45.865 44.6249L42.5005 42.6061L39.1359 44.5895C36.0546 46.4311 34.0359 45.3687 33.2921 44.8374C32.5484 44.3062 30.9546 42.7124 31.7692 39.2062L32.6192 35.5583L29.7859 32.9373C28.2275 31.379 27.6609 29.502 28.1921 27.802C28.7234 26.102 30.2817 24.8978 32.4775 24.5436L36.2671 23.9061L38.0734 19.9395C39.1005 17.9207 40.6942 16.7874 42.5005 16.7874C44.3067 16.7874 45.9359 17.9562 46.9275 19.9749L49.0171 24.1541L52.5234 24.5791C54.6838 24.9332 56.2421 26.1373 56.8088 27.8373C57.34 29.5373 56.7734 31.4145 55.215 32.9728L52.2755 35.9124L53.1963 39.2062C54.0109 42.7124 52.4171 44.3062 51.6734 44.8374C51.2838 45.1562 50.4338 45.652 49.1942 45.652ZM34.0359 29.7145L36.4796 32.1582C37.613 33.2915 38.1796 35.2041 37.8255 36.7624L37.1525 39.5957L39.9859 37.9311C41.5088 37.0457 43.563 37.0457 45.0505 37.9311L47.8838 39.5957L47.2463 36.7624C46.8921 35.1687 47.4234 33.2915 48.5567 32.1582L51.0005 29.7145L47.9192 29.1832C46.4317 28.9353 44.9442 27.8374 44.2713 26.4916L42.5005 23.0207L40.7296 26.5624C40.0921 27.8728 38.6046 29.0062 37.1171 29.2541L34.0359 29.7145Z" fill="#FFD200"/>
</svg>
