<?xml version="1.0" encoding="UTF-8" standalone="no"?>
<svg
   width="18"
   height="18"
   viewBox="0 0 18 18"
   fill="none"
   version="1.1"
   id="svg4"
   sodipodi:docname="phone.svg"
   inkscape:version="1.1.2 (b8e25be833, 2022-02-05)"
   xmlns:inkscape="http://www.inkscape.org/namespaces/inkscape"
   xmlns:sodipodi="http://sodipodi.sourceforge.net/DTD/sodipodi-0.dtd"
   xmlns="http://www.w3.org/2000/svg"
   xmlns:svg="http://www.w3.org/2000/svg">
  <defs
     id="defs8" />
  <sodipodi:namedview
     id="namedview6"
     pagecolor="#505050"
     bordercolor="#eeeeee"
     borderopacity="1"
     inkscape:pageshadow="0"
     inkscape:pageopacity="0"
     inkscape:pagecheckerboard="0"
     showgrid="false"
     inkscape:zoom="46.166667"
     inkscape:cx="7.5812274"
     inkscape:cy="9.9314079"
     inkscape:window-width="1920"
     inkscape:window-height="1018"
     inkscape:window-x="-8"
     inkscape:window-y="-8"
     inkscape:window-maximized="1"
     inkscape:current-layer="svg4" />
  <path
     d="M3.625 7.795C5.065 10.625 7.38 12.94 10.215 14.38L12.415 12.175C12.69 11.9 13.085 11.82 13.43 11.93C14.55 12.3 15.755 12.5 17 12.5C17.555 12.5 18 12.945 18 13.5V17C18 17.555 17.555 18 17 18C7.61 18 0 10.39 0 1C0 0.445 0.45 0 1 0H4.5C5.055 0 5.5 0.445 5.5 1C5.5 2.245 5.7 3.45 6.07 4.57C6.18 4.915 6.1 5.31 5.825 5.585L3.625 7.795Z"
     fill="black"
     id="path2"
     style="fill:#ffd200;fill-opacity:1;stroke:#ffd200;stroke-opacity:1" />
</svg>
