<?xml version="1.0" encoding="UTF-8" standalone="no"?>
<svg
   width="28"
   height="18"
   viewBox="0 0 28 18"
   fill="none"
   version="1.1"
   id="svg4"
   sodipodi:docname="Vector.svg"
   inkscape:version="1.1.2 (b8e25be833, 2022-02-05)"
   xmlns:inkscape="http://www.inkscape.org/namespaces/inkscape"
   xmlns:sodipodi="http://sodipodi.sourceforge.net/DTD/sodipodi-0.dtd"
   xmlns="http://www.w3.org/2000/svg"
   xmlns:svg="http://www.w3.org/2000/svg">
  <defs
     id="defs8" />
  <sodipodi:namedview
     id="namedview6"
     pagecolor="#505050"
     bordercolor="#eeeeee"
     borderopacity="1"
     inkscape:pageshadow="0"
     inkscape:pageopacity="0"
     inkscape:pagecheckerboard="0"
     showgrid="false"
     inkscape:zoom="4.0805954"
     inkscape:cx="-9.5574288"
     inkscape:cy="-7.2293372"
     inkscape:window-width="1920"
     inkscape:window-height="1018"
     inkscape:window-x="-8"
     inkscape:window-y="-8"
     inkscape:window-maximized="1"
     inkscape:current-layer="svg4" />
  <path
     d="M 13.0074,7.38355 C 11.5834,3.50025 8.07045,0.681274 4.65574,0.681274 4.38147,0.681274 4.10747,0.699479 3.84052,0.735473 3.68914,0.755746 3.55675,0.823599 3.47482,0.922067 3.39316,1.02116 3.3701,1.14155 3.41161,1.25409 l 0.70291,1.91724 c 0.06782,0.18515 0.30194,0.3103 0.54529,0.30182 L 4.7157,3.47232 c 1.26637,0 3.58074,1.44724 4.76057,4.66382 C 9.52294,8.26377 9.56716,8.3943 9.60975,8.53042 8.28532,8.03063 6.70533,7.91499 5.27455,8.21888 2.04675,8.90754 0.155871,11.4698 1.05818,13.9307 c 0.73139,1.994 3.13691,3.387 5.8498,3.387 0.55262,0 1.10442,-0.0581 1.64021,-0.1725 2.12851,-0.4537 3.72891,-1.8012 4.50641,-3.7935 0.7018,-1.7975 0.6842,-3.97271 -0.0472,-5.96815 z"
     fill="#ffd200"
     id="path2" />
  <g
     style="fill:none"
     id="g19"
     transform="translate(14.166751,-5.7e-4)">
    <path
       d="m 4.57953,0.682251 c -0.27373,0 -0.548,0.01779 -0.81468,0.053785 C 3.61374,0.755895 3.48108,0.824162 3.39942,0.92263 3.31777,1.02172 3.29471,1.14212 3.33594,1.25465 l 0.70318,1.91724 c 0.06783,0.18515 0.29761,0.3103 0.5453,0.30182 l 0.05534,-8.3e-4 c 1.26638,0 3.58101,1.44725 4.76085,4.66382 C 9.44754,8.26516 9.49176,8.39569 9.53408,8.53099 8.20911,8.0312 6.62966,7.91556 5.19888,8.21944 1.97163,8.9081 0.080203,11.4704 0.983053,13.9312 c 0.731397,1.994 3.136917,3.3871 5.849807,3.3871 0.55261,0 1.10442,-0.0582 1.64048,-0.1726 C 10.6016,16.6921 12.2019,15.3446 12.9797,13.3522 13.6813,11.5548 13.6639,9.37935 12.9323,7.3837 11.5074,3.50081 7.99506,0.682251 4.57953,0.682251 Z"
       fill="#ffd200"
       id="path10" />
  </g>
</svg>
